<svg xmlns="http://www.w3.org/2000/svg" version="1.2" baseProfile="tiny-ps" preserveAspectRatio="xMidYMid meet" viewBox="138.24 140.17 715.06 661.97">
 <g fill="#f6f5f8">
  <path d="M 293 679.1 c -13.1 -3.6 -22.8 -10.1 -37.6 -25.3 -9.8 -10 -16.9 -20.8 -19.2 -29.1 -0.7 -2.9 -1.9 -7 -2.5 -9.2 -1.4 -5.2 -2.2 -246.4 -0.8 -251.5 3.5 -12.9 6.8 -21.7 9.9 -27.1 3.6 -6 14.4 -17.6 23.3 -25 6.1 -5.1 19.7 -11.7 28.7 -14 7.3 -1.8 13.2 -1.9 204.1 -1.9 218.2 0 198.4 -0.6 212.6 6.8 8.1 4.2 26.3 21.2 32.5 30.2 4.2 6.2 8.9 16.1 10.9 23 0.7 2.5 1.7 5.9 2.2 7.6 1.2 4.1 1.2 242.7 0 246.8 -0.5 1.7 -1.5 5.6 -2.1 8.6 -1.9 8.6 -10.4 24.1 -17.6 32.3 -17.6 19.9 -19.4 21.6 -27.6 25.7 -8 4 -8 4 -209.2 3.9 -189.3 0 -201.5 -0.1 -207.6 -1.8 z  m 248.7 -103.3 c 3.4 -3.7 6.3 -9.1 6.3 -11.8 0 -1.4 -1.4 -4.2 -3.1 -6.3 -3 -3.7 -3 -3.7 -46.5 -3.7 -47.4 0 -47.3 0 -52.8 5.8 -2.4 2.6 -2.7 3.5 -2.1 6.9 0.8 4.7 2 6.4 6.5 9.2 3.4 2 4.4 2.1 46.6 2.1 43.1 0 43.1 0 45.1 -2.2 z  M433.4 475.2 C 433.4 450 413 429.6 387.8 429.6 362.7 429.6 342.3 450 342.3 475.2 342.3 500.4 362.7 520.8 387.8 520.8 413 520.8 433.4 500.4 433.4 475.2 Z M406.1 518.5  M649.3 475.1 C 649.3 449.9 628.8 429.4 603.6 429.4 578.3 429.4 557.9 449.9 557.9 475.1 557.9 500.4 578.3 520.8 603.6 520.8 628.8 520.8 649.3 500.4 649.3 475.1 Z M622.1 518.5 "/>
 </g>
 <g fill="#323549">
  <path d="M 233.6 800.7 c -2 -1.5 -1.9 -5.6 0.3 -17.2 1.3 -7 7.4 -22.4 11 -27.7 2.9 -4.3 19.1 -20.2 25.1 -24.7 5.4 -4.1 16.1 -11.1 16.9 -11.1 1.2 0 9.1 -8.5 9.1 -9.8 0 -1.2 -1.5 -2 -11.5 -6 -2.7 -1.1 -7.5 -3 -10.5 -4.2 -13.9 -5.5 -26.7 -13.3 -34.3 -20.8 -7.8 -7.6 -16.4 -18.6 -19.7 -25.2 -1.3 -2.5 -3 -5.6 -3.9 -7 -0.9 -1.3 -2.1 -3.8 -2.8 -5.5 -0.6 -1.6 -1.9 -5 -2.8 -7.5 -2.9 -7.5 -4.9 -17.7 -6.3 -31.8 -0.8 -8 -2.3 -10.2 -7.1 -10.2 -4 0 -18.5 -5.4 -24.8 -9.1 -16.2 -9.7 -28.6 -27.4 -32.6 -46.4 -1.4 -7 -2.1 -79.9 -0.7 -84.7 0.5 -2.1 1.5 -5.7 2.2 -8 2.8 -10 7.4 -17 18 -27.4 10.5 -10.2 15.5 -14.1 21.8 -16.7 9.4 -4 14 -5.7 15.8 -5.7 1 0 2.9 -1.2 4.3 -2.6 2.5 -2.7 3.1 -5.9 4.8 -25.4 1 -10.4 1.9 -15.1 4.6 -22 3.5 -9.2 4.1 -10.6 6.9 -15.5 1.6 -2.7 4 -7 5.4 -9.5 1.4 -2.5 7.5 -9.6 13.6 -15.8 11.5 -11.8 23.9 -21 31.1 -23.2 2.2 -0.6 6.3 -2.2 9 -3.5 5.2 -2.4 13.9 -5.2 21.5 -6.9 2.7 -0.6 38.8 -1.1 91 -1.3 86.4 -0.3 86.4 -0.3 88.7 -2.5 2.2 -2 2.3 -2.9 2.3 -15 0 -12.9 0 -12.9 -2.6 -10.9 -2 1.6 -4.1 2.1 -8.6 2.1 -10.1 0 -14.8 -4.1 -14.8 -12.9 0 -4.6 0.3 -5.2 5.1 -9.5 2.8 -2.5 7.5 -6 10.5 -7.7 4.9 -2.8 6.6 -3.2 15.8 -3.6 5.6 -0.3 14.1 -0.2 18.8 0.2 7.2 0.5 9.6 1.2 14 3.8 6.4 3.9 11.8 11.3 11.8 16.4 0 3.7 -4.7 11.6 -7.5 12.7 -3.3 1.2 -9.1 0.5 -13.7 -1.8 -4.8 -2.3 -4.8 -2.3 -4.8 10.8 0 8.9 0.4 13.6 1.2 14.4 0.9 0.9 22.6 1.2 91.6 1.2 88.9 0 90.6 0 97.1 2.1 3.6 1.1 8.2 2.5 10.1 3 3.5 1 9.9 3.5 17.9 7.1 11.4 5 30 20.1 37.6 30.3 1.6 2.2 4.4 5.7 6.2 7.7 6.3 7.2 15.9 29.7 18.5 43.3 0.6 2.8 1.3 10.6 1.6 17.3 0.8 13.8 1.5 15.2 8 15.2 3.5 0 16.1 3.9 21.6 6.6 3.7 1.9 12.8 8.6 17.5 12.8 4 3.7 9.8 12 13.6 19.6 6.4 12.7 6.8 16.3 6.8 60 0 45.4 -0.1 46.8 -8.3 63 -3.5 7 -6.2 10.5 -15.4 19.8 -13.3 13.7 -16.5 15.4 -38.8 21.3 -4.7 1.3 -4.7 1.3 -5.1 10.8 -0.6 11.8 -1.3 16.2 -3.7 22.6 -1 2.8 -2.4 7 -3.1 9.5 -0.7 2.5 -2 5.6 -3 7 -0.9 1.4 -2.7 4.5 -3.9 7 -3.8 7.5 -12.2 17.9 -24.7 30.2 -11.2 11.1 -12.4 12.1 -23.8 17.6 -6.6 3.2 -14.6 6.7 -17.8 7.6 -3.2 1 -7.1 2.9 -8.5 4.1 -2.6 2.3 -2.6 2.3 0.8 4.4 1.9 1.1 4.2 2.1 5 2.1 1.4 0.1 6.4 3.5 18.2 12.6 8.3 6.4 19.6 19.1 23 25.8 1.7 3.4 3.9 7.2 4.9 8.5 1 1.2 2.2 3.9 2.5 6 0.4 2 1.5 6 2.5 9 2.2 6.2 2.6 19 0.7 20.9 -1.9 1.9 -518.7 1.7 -521.2 -0.1 z  m 476.2 -123.7 c 8.2 -4.1 10 -5.8 27.6 -25.7 7.2 -8.2 15.7 -23.7 17.6 -32.3 0.6 -3 1.6 -6.9 2.1 -8.6 1.2 -4.1 1.2 -242.7 0 -246.8 -0.5 -1.7 -1.5 -5.1 -2.2 -7.6 -2 -6.9 -6.7 -16.8 -10.9 -23 -6.2 -9 -24.4 -26 -32.5 -30.2 -14.2 -7.4 5.6 -6.8 -212.6 -6.8 -190.9 0 -196.8 0.1 -204.1 1.9 -9 2.3 -22.6 8.9 -28.7 14 -8.9 7.4 -19.7 19 -23.3 25 -3.1 5.4 -6.4 14.2 -9.9 27.1 -1.4 5.1 -0.6 246.3 0.8 251.5 0.6 2.2 1.8 6.3 2.5 9.2 2.3 8.3 9.4 19.1 19.2 29.1 14.8 15.2 24.5 21.7 37.6 25.3 6.1 1.7 18.3 1.8 207.6 1.8 201.2 0.1 201.2 0.1 209.2 -3.9 z  m -534 -181.8 c 0.2 -44.2 0.2 -44.2 -2.2 -44.2 -4.2 0 -4.6 3.4 -4.6 43.7 0 35.7 0.1 37.6 2.1 41.4 4.1 8.2 4.4 6 4.7 -40.9 z  m 644.7 37.8 c 1.3 -2.5 1.5 -9.1 1.5 -43.5 0 -40.6 0 -40.6 -2.7 -40.3 -2.8 0.3 -2.8 0.3 -3.1 42.3 -0.1 23.1 0 42.6 0.3 43.2 0.8 2.1 2.4 1.5 4 -1.7 z "/>
  <path d="M 450 575.9 c -4.5 -2.8 -5.7 -4.5 -6.5 -9.2 -0.6 -3.4 -0.3 -4.3 2.1 -6.9 5.5 -5.8 5.4 -5.8 52.8 -5.8 43.5 0 43.5 0 46.5 3.7 1.7 2.1 3.1 4.9 3.1 6.3 0 2.7 -2.9 8.1 -6.3 11.8 -2 2.2 -2 2.2 -45.1 2.2 -42.2 0 -43.2 -0.1 -46.6 -2.1 z "/>
  <path d="M433.3 475.1 C 433.3 500.3 413 520.7 387.8 520.7 362.7 520.7 342.3 500.3 342.3 475.1 342.3 450 362.7 429.6 387.8 429.6 413 429.6 433.3 450 433.3 475.1 Z M373 518.1 "/>
  <path d="M649.2 475 C 649.2 500.3 628.8 520.7 603.6 520.7 578.3 520.7 557.9 500.3 557.9 475 557.9 449.8 578.3 429.4 603.6 429.4 628.8 429.4 649.2 449.8 649.2 475 Z M588.8 518 "/>
  <path d="M 408.8 197.7 c -4.4 -3.5 -7.8 -8.8 -7.8 -12 0 -5.9 22.5 -25.4 38.5 -33.4 3.5 -1.8 17.9 -6.7 25.5 -8.8 4.6 -1.3 18.4 -2.6 32.8 -3.1 12.5 -0.5 15.4 -0.3 23 1.6 14.4 3.6 25.7 8.5 38.7 17.1 21.2 14 27.1 25.1 19 36.2 -3.5 4.7 -3.6 4.7 -9.3 4.7 -4.7 0 -6.7 -0.6 -10.3 -2.8 -2.4 -1.6 -5 -3.6 -5.8 -4.6 -5.5 -6.6 -25.6 -17.8 -37.6 -20.9 -11.6 -3 -42.6 -0.3 -54 4.8 -2.2 0.9 -6 2.6 -8.5 3.7 -6.3 2.8 -19.8 11.9 -23.9 16.2 -3.4 3.5 -3.8 3.6 -10.5 3.6 -5.9 0 -7.6 -0.4 -9.8 -2.3 z "/>
 </g>
 <g fill="#7ef4f5">
  <path d="M 186.7 799.6 c -3.6 -1 -6.3 -2.8 -10.4 -6.7 -7.5 -7.4 -9.3 -11.2 -9.3 -19.8 0 -9.1 1 -11.5 7.8 -18.4 9.8 -10.1 8.1 -9.7 46.4 -9.7 33.2 0 33.2 0 29.2 4.3 -6 6.4 -8 9.6 -11.9 19.8 -4.2 10.6 -5.8 17.9 -5.9 26.2 -0.1 5.7 -0.1 5.7 -20.6 5.6 -13.5 0 -22.2 -0.5 -25.3 -1.3 z "/>
  <path d="M 755.8 793.5 c 0.3 -5.5 -0.2 -9.2 -1.7 -13.8 -1.1 -3.4 -2.2 -7.6 -2.6 -9.4 -0.4 -1.8 -1.4 -4.2 -2.4 -5.5 -1 -1.3 -3.2 -5 -5 -8.3 -1.7 -3.3 -4.3 -7.5 -5.8 -9.3 -2.6 -3.3 -2.6 -3.3 28.3 -3 30.9 0.3 30.9 0.3 38.5 4.1 10.2 5.1 15.5 10.6 17.4 18 0.8 3.2 1.5 6.7 1.5 7.9 0 4.3 -5.4 13.4 -11.9 20.1 -6.5 6.7 -6.5 6.7 -31.6 6.7 -25 0 -25 0 -24.7 -7.5 z "/>
  <path d="M 171.1 536.1 c -2 -3.8 -2.1 -5.7 -2.1 -41.4 0 -40.3 0.4 -43.7 4.6 -43.7 2.4 0 2.4 0 2.2 44.2 -0.3 46.9 -0.6 49.1 -4.7 40.9 z "/>
  <path d="M 816.5 534.7 c -0.3 -0.6 -0.4 -20.1 -0.3 -43.2 0.3 -42 0.3 -42 3.1 -42.3 2.7 -0.3 2.7 -0.3 2.7 40.3 0 34.4 -0.2 41 -1.5 43.5 -1.6 3.2 -3.2 3.8 -4 1.7 z "/>
 </g>
</svg>